# xmcd
#
# Track frame offsets:
#	150
#	18107
#	35759
#	53477
#	70710
#	85534
#	99080
#	112324
#	123757
#	141102
#	156664
#	171410
#	185076
#	198270
#	209972
#
# Disc length: 2948 seconds
#
# Revision: 0
# Processed by: cddbd v1.4PL0 Copyright (c) Steve Scherf et al.
# Submitted via: dBpowerAMP V4.0
#
DISCID=d40b820f
DTITLE=Grupo Bronco - CECD-0566
DYEAR=1900
DGENRE=
TTITLE0=Amigo Bronco
TTITLE1=Una Noche Mas
TTITLE2=Lágrimas De Sal Y Limón
TTITLE3=No Nos Vamos A Olvidar
TTITLE4=Sed
TTITLE5=Mi Chica Dificil
TTITLE6=Te Voy A Tumbar La Casita
TTITLE7=Un Golpe Mas
TTITLE8=Corazón Bandido
TTITLE9=Lo Tengo Decidido
TTITLE10=Una Rosa, Una Espina
TTITLE11=Que No Quede Huella
TTITLE12=A Que Le Tiramos
TTITLE13=Ni Quemando Las Cobijas
TTITLE14=El Chupetón
EXTD=Album: 15 PISTAS PARA CANTAR COMO BRONCO
EXTT0=
EXTT1=
EXTT2=
EXTT3=
EXTT4=
EXTT5=
EXTT6=
EXTT7=
EXTT8=
EXTT9=
EXTT10=
EXTT11=
EXTT12=
EXTT13=
EXTT14=
PLAYORDER=
